<?xml version="1.0" encoding="utf-8"?>
<!-- Generator: Adobe Illustrator 17.0.0, SVG Export Plug-In . SVG Version: 6.00 Build 0)  -->
<!DOCTYPE svg PUBLIC "-//W3C//DTD SVG 1.1//EN" "http://www.w3.org/Graphics/SVG/1.1/DTD/svg11.dtd">
<svg version="1.1" id="Слой_1" xmlns="http://www.w3.org/2000/svg" xmlns:xlink="http://www.w3.org/1999/xlink" x="0px" y="0px"
	 width="112px" height="112.01px" viewBox="0 0 112 112.01" enable-background="new 0 0 112 112.01" xml:space="preserve">
<g>
	<g>
		<defs>
			<rect id="SVGID_1_" x="0" y="0" width="112" height="112.01"/>
		</defs>
		<clipPath id="SVGID_2_">
			<use xlink:href="#SVGID_1_"  overflow="visible"/>
		</clipPath>
		<path clip-path="url(#SVGID_2_)" fill="#FFFFFF" d="M111.832,88.242c0.236,1.815-0.317,3.395-1.659,4.737L94.42,108.613
			c-0.711,0.79-1.639,1.461-2.783,2.014c-1.145,0.553-2.271,0.908-3.376,1.066c-0.079,0-0.317,0.02-0.711,0.06
			c-0.394,0.04-0.907,0.06-1.54,0.06c-1.5,0-3.928-0.257-7.284-0.77c-3.357-0.513-7.463-1.777-12.318-3.79
			c-4.856-2.014-10.364-5.034-16.523-9.061c-6.159-4.027-12.713-9.555-19.662-16.582c-5.527-5.449-10.107-10.661-13.739-15.635
			C12.851,60.999,9.93,56.4,7.719,52.175c-2.211-4.224-3.87-8.054-4.974-11.49c-1.106-3.434-1.856-6.396-2.251-8.883
			c-0.395-2.487-0.553-4.442-0.473-5.863c0.078-1.421,0.118-2.211,0.118-2.369c0.158-1.106,0.513-2.23,1.066-3.376
			c0.553-1.145,1.224-2.072,2.014-2.783L18.971,1.658C20.077,0.553,21.34,0,22.762,0c1.026,0,1.934,0.296,2.724,0.888
			c0.79,0.593,1.461,1.323,2.014,2.192l12.674,24.044c0.711,1.263,0.908,2.646,0.592,4.146c-0.316,1.501-0.987,2.764-2.014,3.79
			l-5.803,5.803c-0.158,0.159-0.297,0.415-0.415,0.77c-0.118,0.355-0.178,0.652-0.178,0.888c0.316,1.659,1.026,3.553,2.132,5.685
			c0.948,1.896,2.409,4.205,4.383,6.93c1.974,2.724,4.777,5.863,8.41,9.416c3.553,3.632,6.711,6.455,9.476,8.469
			c2.763,2.013,5.073,3.494,6.929,4.442c1.855,0.947,3.277,1.52,4.264,1.717l1.48,0.296c0.158,0,0.415-0.06,0.77-0.178
			c0.355-0.118,0.612-0.256,0.77-0.415l6.751-6.869c1.422-1.263,3.08-1.896,4.974-1.896c1.343,0,2.409,0.237,3.198,0.711h0.119
			l22.86,13.503C110.529,85.359,111.516,86.662,111.832,88.242L111.832,88.242z M111.832,88.242"/>
	</g>
</g>
</svg>
